<svg xmlns="http://www.w3.org/2000/svg" width="280" height="280" viewBox="0 0 280 280">
  <g id="pt_block" transform="translate(-17.979 -17.979)" opacity="0.6" style="mix-blend-mode: multiply;isolation: isolate">
    <g id="グループ_133" data-name="グループ 133" transform="translate(17.979 17.979)">
      <g id="グループ_128" data-name="グループ 128" transform="translate(217.846 0.634)">
        <rect id="長方形_86" data-name="長方形 86" width="62.154" height="62.565" rx="2.021" fill="#cfb866"/>
      </g>
      <g id="グループ_129" data-name="グループ 129" transform="translate(109.122 55.352)">
        <path id="パス_284" data-name="パス 284" d="M132.83,218.228a3.915,3.915,0,0,1-3.9-3.923V169.8a6.518,6.518,0,0,0-6.494-6.54H78.468a3.915,3.915,0,0,1-3.9-3.923V104.618a3.916,3.916,0,0,1,3.9-3.925h43.971a6.518,6.518,0,0,0,6.494-6.54V50.406a3.915,3.915,0,0,1,3.9-3.923h54.362a3.913,3.913,0,0,1,3.9,3.923v44a6.518,6.518,0,0,0,6.494,6.54H241.3a3.913,3.913,0,0,1,3.9,3.923v54.717a3.913,3.913,0,0,1-3.9,3.925h-43.72a6.517,6.517,0,0,0-6.494,6.538v44.256a3.913,3.913,0,0,1-3.9,3.923Zm10.389-109.181a6.518,6.518,0,0,0-6.494,6.54v33.537a6.518,6.518,0,0,0,6.494,6.54h33.331a6.516,6.516,0,0,0,6.492-6.54V115.587a6.516,6.516,0,0,0-6.492-6.54Z" transform="translate(-74.571 -46.483)" fill="#cfb866"/>
      </g>
      <g id="グループ_130" data-name="グループ 130" transform="translate(0 109.562)">
        <path id="パス_285" data-name="パス 285" d="M21.876,244.837a3.915,3.915,0,0,1-3.9-3.925V186.2a3.915,3.915,0,0,1,3.9-3.923H65.743a6.518,6.518,0,0,0,6.494-6.54V143.5a6.518,6.518,0,0,0-6.494-6.54H21.876a3.915,3.915,0,0,1-3.9-3.923V78.324a3.915,3.915,0,0,1,3.9-3.925H76.238a3.913,3.913,0,0,1,3.9,3.925v44.254a6.516,6.516,0,0,0,6.494,6.538h43.867a3.915,3.915,0,0,1,3.9,3.925v54.717a3.913,3.913,0,0,1-3.9,3.923H86.627a6.518,6.518,0,0,0-6.494,6.54v42.693a3.913,3.913,0,0,1-3.9,3.925Z" transform="translate(-17.979 -74.399)" fill="#cfb866"/>
      </g>
      <g id="グループ_131" data-name="グループ 131" transform="translate(0.274)">
        <path id="パス_286" data-name="パス 286" d="M76.253,135.136a3.916,3.916,0,0,1-3.9-3.925V87.083a6.517,6.517,0,0,0-6.494-6.538H22.016a3.915,3.915,0,0,1-3.895-3.925V21.9a3.915,3.915,0,0,1,3.895-3.925H76.378a3.915,3.915,0,0,1,3.9,3.925V66.031a6.518,6.518,0,0,0,6.494,6.54h43.846a3.913,3.913,0,0,1,3.9,3.923v54.717a3.915,3.915,0,0,1-3.9,3.925Z" transform="translate(-18.121 -17.979)" fill="#cfb866"/>
      </g>
      <g id="グループ_132" data-name="グループ 132" transform="translate(109.122 0.634)">
        <rect id="長方形_87" data-name="長方形 87" width="62.154" height="62.565" rx="2.021" fill="#cfb866"/>
      </g>
    </g>
    <g id="グループ_139" data-name="グループ 139" transform="translate(17.979 17.979)">
      <g id="グループ_134" data-name="グループ 134" transform="translate(217.846 0.634)">
        <rect id="長方形_88" data-name="長方形 88" width="62.154" height="62.565" rx="2.021" fill="#9E824F"/>
        <rect id="長方形_89" data-name="長方形 89" width="62.154" height="62.565" rx="2.021" fill="#9E824F"/>
      </g>
      <g id="グループ_135" data-name="グループ 135" transform="translate(109.122 55.352)">
        <path id="パス_287" data-name="パス 287" d="M132.83,218.228a3.915,3.915,0,0,1-3.9-3.923V169.8a6.518,6.518,0,0,0-6.494-6.54H78.468a3.915,3.915,0,0,1-3.9-3.923V104.618a3.916,3.916,0,0,1,3.9-3.925h43.971a6.518,6.518,0,0,0,6.494-6.54V50.406a3.915,3.915,0,0,1,3.9-3.923h54.362a3.913,3.913,0,0,1,3.9,3.923v44a6.518,6.518,0,0,0,6.494,6.54H241.3a3.913,3.913,0,0,1,3.9,3.923v54.717a3.913,3.913,0,0,1-3.9,3.925h-43.72a6.517,6.517,0,0,0-6.494,6.538v44.256a3.913,3.913,0,0,1-3.9,3.923Zm10.389-109.181a6.518,6.518,0,0,0-6.494,6.54v33.537a6.518,6.518,0,0,0,6.494,6.54h33.331a6.516,6.516,0,0,0,6.492-6.54V115.587a6.516,6.516,0,0,0-6.492-6.54Z" transform="translate(-74.571 -46.483)" fill="#9E824F"/>
        <path id="パス_288" data-name="パス 288" d="M132.83,218.228a3.915,3.915,0,0,1-3.9-3.923V169.8a6.518,6.518,0,0,0-6.494-6.54H78.468a3.915,3.915,0,0,1-3.9-3.923V104.618a3.916,3.916,0,0,1,3.9-3.925h43.971a6.518,6.518,0,0,0,6.494-6.54V50.406a3.915,3.915,0,0,1,3.9-3.923h54.362a3.913,3.913,0,0,1,3.9,3.923v44a6.518,6.518,0,0,0,6.494,6.54H241.3a3.913,3.913,0,0,1,3.9,3.923v54.717a3.913,3.913,0,0,1-3.9,3.925h-43.72a6.517,6.517,0,0,0-6.494,6.538v44.256a3.913,3.913,0,0,1-3.9,3.923Zm10.389-109.181a6.518,6.518,0,0,0-6.494,6.54v33.537a6.518,6.518,0,0,0,6.494,6.54h33.331a6.516,6.516,0,0,0,6.492-6.54V115.587a6.516,6.516,0,0,0-6.492-6.54Z" transform="translate(-74.571 -46.483)" fill="#9E824F"/>
      </g>
      <g id="グループ_136" data-name="グループ 136" transform="translate(0 109.562)">
        <path id="パス_289" data-name="パス 289" d="M21.876,244.837a3.915,3.915,0,0,1-3.9-3.925V186.2a3.915,3.915,0,0,1,3.9-3.923H65.743a6.518,6.518,0,0,0,6.494-6.54V143.5a6.518,6.518,0,0,0-6.494-6.54H21.876a3.915,3.915,0,0,1-3.9-3.923V78.324a3.915,3.915,0,0,1,3.9-3.925H76.238a3.913,3.913,0,0,1,3.9,3.925v44.254a6.516,6.516,0,0,0,6.494,6.538h43.867a3.915,3.915,0,0,1,3.9,3.925v54.717a3.913,3.913,0,0,1-3.9,3.923H86.627a6.518,6.518,0,0,0-6.494,6.54v42.693a3.913,3.913,0,0,1-3.9,3.925Z" transform="translate(-17.979 -74.399)" fill="#9E824F"/>
        <path id="パス_290" data-name="パス 290" d="M21.876,244.837a3.915,3.915,0,0,1-3.9-3.925V186.2a3.915,3.915,0,0,1,3.9-3.923H65.743a6.518,6.518,0,0,0,6.494-6.54V143.5a6.518,6.518,0,0,0-6.494-6.54H21.876a3.915,3.915,0,0,1-3.9-3.923V78.324a3.915,3.915,0,0,1,3.9-3.925H76.238a3.913,3.913,0,0,1,3.9,3.925v44.254a6.516,6.516,0,0,0,6.494,6.538h43.867a3.915,3.915,0,0,1,3.9,3.925v54.717a3.913,3.913,0,0,1-3.9,3.923H86.627a6.518,6.518,0,0,0-6.494,6.54v42.693a3.913,3.913,0,0,1-3.9,3.925Z" transform="translate(-17.979 -74.399)" fill="#9E824F"/>
      </g>
      <g id="グループ_137" data-name="グループ 137" transform="translate(0.274)">
        <path id="パス_291" data-name="パス 291" d="M76.253,135.136a3.916,3.916,0,0,1-3.9-3.925V87.083a6.517,6.517,0,0,0-6.494-6.538H22.016a3.915,3.915,0,0,1-3.895-3.925V21.9a3.915,3.915,0,0,1,3.895-3.925H76.378a3.915,3.915,0,0,1,3.9,3.925V66.031a6.518,6.518,0,0,0,6.494,6.54h43.846a3.913,3.913,0,0,1,3.9,3.923v54.717a3.915,3.915,0,0,1-3.9,3.925Z" transform="translate(-18.121 -17.979)" fill="#9E824F"/>
        <path id="パス_292" data-name="パス 292" d="M76.253,135.136a3.916,3.916,0,0,1-3.9-3.925V87.083a6.517,6.517,0,0,0-6.494-6.538H22.016a3.915,3.915,0,0,1-3.895-3.925V21.9a3.915,3.915,0,0,1,3.895-3.925H76.378a3.915,3.915,0,0,1,3.9,3.925V66.031a6.518,6.518,0,0,0,6.494,6.54h43.846a3.913,3.913,0,0,1,3.9,3.923v54.717a3.915,3.915,0,0,1-3.9,3.925Z" transform="translate(-18.121 -17.979)" fill="#9E824F"/>
      </g>
      <g id="グループ_138" data-name="グループ 138" transform="translate(109.122 0.634)">
        <rect id="長方形_90" data-name="長方形 90" width="62.154" height="62.565" rx="2.021" fill="#9E824F"/>
        <rect id="長方形_91" data-name="長方形 91" width="62.154" height="62.565" rx="2.021" fill="#9E824F"/>
      </g>
    </g>
  </g>
</svg>
