<svg xmlns="http://www.w3.org/2000/svg" width="280" height="280" viewBox="0 0 280 280">
  <g id="pt_block" opacity="0.6" style="mix-blend-mode: multiply;isolation: isolate">
    <g id="グループ_133" data-name="グループ 133">
      <g id="グループ_128" data-name="グループ 128" transform="translate(0 216.801)">
        <rect id="長方形_86" data-name="長方形 86" width="62.154" height="62.565" rx="2.021" fill="#cfb866"/>
      </g>
      <g id="グループ_129" data-name="グループ 129" transform="translate(0.252 52.903)">
        <path id="パス_284" data-name="パス 284" d="M186.938,46.483a3.915,3.915,0,0,1,3.9,3.923V94.914a6.518,6.518,0,0,0,6.494,6.54H241.3a3.915,3.915,0,0,1,3.9,3.923v54.717a3.916,3.916,0,0,1-3.9,3.925H197.329a6.518,6.518,0,0,0-6.494,6.54v43.747a3.915,3.915,0,0,1-3.9,3.923H132.576a3.913,3.913,0,0,1-3.9-3.923v-44a6.518,6.518,0,0,0-6.494-6.54H78.466a3.913,3.913,0,0,1-3.9-3.923V105.124a3.913,3.913,0,0,1,3.9-3.925h43.72a6.517,6.517,0,0,0,6.494-6.538V50.406a3.913,3.913,0,0,1,3.9-3.923ZM176.549,155.664a6.518,6.518,0,0,0,6.494-6.54V115.587a6.518,6.518,0,0,0-6.494-6.54H143.218a6.516,6.516,0,0,0-6.492,6.54v33.537a6.516,6.516,0,0,0,6.492,6.54Z" transform="translate(-74.571 -46.483)" fill="#cfb866"/>
      </g>
      <g id="グループ_130" data-name="グループ 130" transform="translate(163.59)">
        <path id="パス_285" data-name="パス 285" d="M130.493,74.4a3.915,3.915,0,0,1,3.9,3.925V133.04a3.915,3.915,0,0,1-3.9,3.923H86.626a6.518,6.518,0,0,0-6.494,6.54v32.23a6.518,6.518,0,0,0,6.494,6.54h43.867a3.915,3.915,0,0,1,3.9,3.923v54.717a3.915,3.915,0,0,1-3.9,3.925H76.13a3.913,3.913,0,0,1-3.9-3.925V196.659a6.516,6.516,0,0,0-6.494-6.538H21.874a3.915,3.915,0,0,1-3.895-3.925V131.479a3.913,3.913,0,0,1,3.895-3.923H65.741a6.518,6.518,0,0,0,6.494-6.54V78.324a3.913,3.913,0,0,1,3.9-3.925Z" transform="translate(-17.979 -74.399)" fill="#cfb866"/>
      </g>
      <g id="グループ_131" data-name="グループ 131" transform="translate(163.337 162.844)">
        <path id="パス_286" data-name="パス 286" d="M76.378,17.979a3.916,3.916,0,0,1,3.9,3.925V66.031a6.517,6.517,0,0,0,6.494,6.538h43.846a3.915,3.915,0,0,1,3.9,3.925v54.717a3.915,3.915,0,0,1-3.9,3.925H76.253a3.915,3.915,0,0,1-3.9-3.925V87.083a6.518,6.518,0,0,0-6.494-6.54H22.018a3.913,3.913,0,0,1-3.9-3.923V21.9a3.915,3.915,0,0,1,3.9-3.925Z" transform="translate(-18.121 -17.979)" fill="#cfb866"/>
      </g>
      <g id="グループ_132" data-name="グループ 132" transform="translate(108.724 216.801)">
        <rect id="長方形_87" data-name="長方形 87" width="62.154" height="62.565" rx="2.021" fill="#cfb866"/>
      </g>
    </g>
    <g id="グループ_139" data-name="グループ 139">
      <g id="グループ_134" data-name="グループ 134" transform="translate(0 216.801)">
        <rect id="長方形_88" data-name="長方形 88" width="62.154" height="62.565" rx="2.021" fill="#9E824F"/>
        <rect id="長方形_89" data-name="長方形 89" width="62.154" height="62.565" rx="2.021" fill="#9E824F"/>
      </g>
      <g id="グループ_135" data-name="グループ 135" transform="translate(0.252 52.903)">
        <path id="パス_287" data-name="パス 287" d="M186.938,46.483a3.915,3.915,0,0,1,3.9,3.923V94.914a6.518,6.518,0,0,0,6.494,6.54H241.3a3.915,3.915,0,0,1,3.9,3.923v54.717a3.916,3.916,0,0,1-3.9,3.925H197.329a6.518,6.518,0,0,0-6.494,6.54v43.747a3.915,3.915,0,0,1-3.9,3.923H132.576a3.913,3.913,0,0,1-3.9-3.923v-44a6.518,6.518,0,0,0-6.494-6.54H78.466a3.913,3.913,0,0,1-3.9-3.923V105.124a3.913,3.913,0,0,1,3.9-3.925h43.72a6.517,6.517,0,0,0,6.494-6.538V50.406a3.913,3.913,0,0,1,3.9-3.923ZM176.549,155.664a6.518,6.518,0,0,0,6.494-6.54V115.587a6.518,6.518,0,0,0-6.494-6.54H143.218a6.516,6.516,0,0,0-6.492,6.54v33.537a6.516,6.516,0,0,0,6.492,6.54Z" transform="translate(-74.571 -46.483)" fill="#9E824F"/>
        <path id="パス_288" data-name="パス 288" d="M186.938,46.483a3.915,3.915,0,0,1,3.9,3.923V94.914a6.518,6.518,0,0,0,6.494,6.54H241.3a3.915,3.915,0,0,1,3.9,3.923v54.717a3.916,3.916,0,0,1-3.9,3.925H197.329a6.518,6.518,0,0,0-6.494,6.54v43.747a3.915,3.915,0,0,1-3.9,3.923H132.576a3.913,3.913,0,0,1-3.9-3.923v-44a6.518,6.518,0,0,0-6.494-6.54H78.466a3.913,3.913,0,0,1-3.9-3.923V105.124a3.913,3.913,0,0,1,3.9-3.925h43.72a6.517,6.517,0,0,0,6.494-6.538V50.406a3.913,3.913,0,0,1,3.9-3.923ZM176.549,155.664a6.518,6.518,0,0,0,6.494-6.54V115.587a6.518,6.518,0,0,0-6.494-6.54H143.218a6.516,6.516,0,0,0-6.492,6.54v33.537a6.516,6.516,0,0,0,6.492,6.54Z" transform="translate(-74.571 -46.483)" fill="#9E824F"/>
      </g>
      <g id="グループ_136" data-name="グループ 136" transform="translate(163.59)">
        <path id="パス_289" data-name="パス 289" d="M130.493,74.4a3.915,3.915,0,0,1,3.9,3.925V133.04a3.915,3.915,0,0,1-3.9,3.923H86.626a6.518,6.518,0,0,0-6.494,6.54v32.23a6.518,6.518,0,0,0,6.494,6.54h43.867a3.915,3.915,0,0,1,3.9,3.923v54.717a3.915,3.915,0,0,1-3.9,3.925H76.13a3.913,3.913,0,0,1-3.9-3.925V196.659a6.516,6.516,0,0,0-6.494-6.538H21.874a3.915,3.915,0,0,1-3.895-3.925V131.479a3.913,3.913,0,0,1,3.895-3.923H65.741a6.518,6.518,0,0,0,6.494-6.54V78.324a3.913,3.913,0,0,1,3.9-3.925Z" transform="translate(-17.979 -74.399)" fill="#9E824F"/>
        <path id="パス_290" data-name="パス 290" d="M130.493,74.4a3.915,3.915,0,0,1,3.9,3.925V133.04a3.915,3.915,0,0,1-3.9,3.923H86.626a6.518,6.518,0,0,0-6.494,6.54v32.23a6.518,6.518,0,0,0,6.494,6.54h43.867a3.915,3.915,0,0,1,3.9,3.923v54.717a3.915,3.915,0,0,1-3.9,3.925H76.13a3.913,3.913,0,0,1-3.9-3.925V196.659a6.516,6.516,0,0,0-6.494-6.538H21.874a3.915,3.915,0,0,1-3.895-3.925V131.479a3.913,3.913,0,0,1,3.895-3.923H65.741a6.518,6.518,0,0,0,6.494-6.54V78.324a3.913,3.913,0,0,1,3.9-3.925Z" transform="translate(-17.979 -74.399)" fill="#9E824F"/>
      </g>
      <g id="グループ_137" data-name="グループ 137" transform="translate(163.337 162.844)">
        <path id="パス_291" data-name="パス 291" d="M76.378,17.979a3.916,3.916,0,0,1,3.9,3.925V66.031a6.517,6.517,0,0,0,6.494,6.538h43.846a3.915,3.915,0,0,1,3.9,3.925v54.717a3.915,3.915,0,0,1-3.9,3.925H76.253a3.915,3.915,0,0,1-3.9-3.925V87.083a6.518,6.518,0,0,0-6.494-6.54H22.018a3.913,3.913,0,0,1-3.9-3.923V21.9a3.915,3.915,0,0,1,3.9-3.925Z" transform="translate(-18.121 -17.979)" fill="#9E824F"/>
        <path id="パス_292" data-name="パス 292" d="M76.378,17.979a3.916,3.916,0,0,1,3.9,3.925V66.031a6.517,6.517,0,0,0,6.494,6.538h43.846a3.915,3.915,0,0,1,3.9,3.925v54.717a3.915,3.915,0,0,1-3.9,3.925H76.253a3.915,3.915,0,0,1-3.9-3.925V87.083a6.518,6.518,0,0,0-6.494-6.54H22.018a3.913,3.913,0,0,1-3.9-3.923V21.9a3.915,3.915,0,0,1,3.9-3.925Z" transform="translate(-18.121 -17.979)" fill="#9E824F"/>
      </g>
      <g id="グループ_138" data-name="グループ 138" transform="translate(108.724 216.801)">
        <rect id="長方形_90" data-name="長方形 90" width="62.154" height="62.565" rx="2.021" fill="#9E824F"/>
        <rect id="長方形_91" data-name="長方形 91" width="62.154" height="62.565" rx="2.021" fill="#9E824F"/>
      </g>
    </g>
  </g>
</svg>
